<?xml version="1.0" encoding="utf-8"?>
<!-- Generator: Adobe Illustrator 17.1.0, SVG Export Plug-In . SVG Version: 6.00 Build 0)  -->
<!DOCTYPE svg PUBLIC "-//W3C//DTD SVG 1.1//EN" "http://www.w3.org/Graphics/SVG/1.1/DTD/svg11.dtd">
<svg version="1.1" id="Layer_1" xmlns="http://www.w3.org/2000/svg" xmlns:xlink="http://www.w3.org/1999/xlink" x="0px" y="0px"
	 viewBox="0 0 508 205" enable-background="new 0 0 508 205" xml:space="preserve">
<path fill="#003DA6" d="M181.9,100.8c-3.8,45.4-42.3,81.3-89.3,81.3c-46.3,0-83.5-34.6-88.7-78.9c0,0,2,3.2,8.6,8.8
	c4.5,3.8,10.8,9,20.5,14.8c17.1,10.3,31.4,13,38.4,14c6.9,1,21.9,0.9,21.9,0.9s18.2-0.5,30.6-7.5c6.4-3.6,10.7-6.8,14.1-9.5
	c3.3-2.6,5.3-4.5,7.8-6.5c2-1.5,4.3-3.6,6.5-5.2c4.7-3.5,8.8-5.8,9.9-6.5C171.6,101.3,181.9,100.8,181.9,100.8z"/>
<path fill="#DD0031" d="M182.5,92.3c0-49.9-40.1-89.9-89.7-89.9c-43.6,0-81.3,34.9-88,72.5c0,0,12.1-2.8,20.8-7.1
	c8.7-4.3,26.6-16.4,46.5-22.3c16.6-4.9,30.5-5,44.2-2.9c21.2,3.3,34.7,11.5,44.9,20.6C175.4,75.7,182.5,92.3,182.5,92.3z"/>
<g>
	<path fill="#EF7622" d="M40,67.4c6.9-3,14-6,20.4-8.1c10-3.4,14.3-4.5,20.6-5.8c8.4-1.7,21.4-2,31.4-0.8c2.1,0.3,7.2,0.8,12.5,2.3
		c7.8,2.2,16.6,5.7,21.5,8.2c2.8,1.4,7.7,4.2,11.7,7.2c7.6,5.8,14.4,12.9,15.8,14.5c2.7,3.2,6.3,9.7,6.3,9.7S172.7,88.1,158,84
		c-5.3-1.5-11.4-1.4-18.1-1.7c-8.6-0.4-13.2-0.2-21.2,0.1c-15.1,0.6-25.4-0.5-30.2-1.5c-10.4-2-26.6-7.5-30.9-8.6L40,67.4z"/>
	<path fill="#EF7622" d="M31.6,71.2c-16.4,8.2-25.9,8.5-25.9,8.5s9.9,6.9,21,7.7c8.5,0.6,22.9-0.9,23.7-1.3s-5.2-6.6-9.4-9.7
		C36.5,73.3,31.6,71.2,31.6,71.2z"/>
</g>
<g>
	<path fill="#0082CA" d="M47.3,123.7c4.6,2,7.2,3,12.4,4.5c12.2,3.5,27,4.1,34,3.2c6.1-0.7,19.1-2.8,28.9-7.9
		c4.7-2.4,12.7-7.4,19.8-11.9c7.1-4.5,10-6.2,13.3-7.8c9-4.4,14.6-5.3,18.8-6c1.6-0.3,5.1-0.2,5.1-0.2c-13-4.8-30.2-4.2-33.9-4.2
		c0,0-15.6-1.1-39.1,4.3c-23.6,5.4-38.3,13.2-44.2,16.2C56.7,116.7,47.3,123.7,47.3,123.7z"/>
	<path fill="#0082CA" d="M5.1,98.5c3.4,3.2,22.3,15.8,30.8,20c0,0,5-2.2,12.3-8.5c6.9-6,10.2-11.4,10.2-11.4L5.1,98.5z"/>
</g>
<g>
	<path d="M204.8,9.2h-8.7V2.5h24.7v6.8h-8.7V59h-7.3V9.2z"/>
	<path d="M244.8,57.1c-2.3,2-3.7,2.8-5.2,2.8c-2.4,0-4.1-1.6-4.8-4.7c-2.5,3.3-4.7,4.9-7.2,4.9c-4,0-7.4-4.4-7.4-9.5
		c0-6.2,4-9.2,14.3-15.3v-3.6c0-3.3-1.3-4.9-3.9-4.9c-2.8,0-5.6,1.8-9.5,6.2v-7.6c3.9-3.6,6.4-4.8,10-4.8c4.7,0,10,3.1,10,10.1v21.2
		c0,1.7,0.3,2.2,1,2.2c0.4,0,1.4-0.7,2.6-1.9V57.1z M234.6,39.8c-5.4,3.3-7.8,6.3-7.8,9.7c0,2.5,1.4,4.2,3.2,4.2
		c1.7,0,3.4-1.5,4.6-4.3V39.8z"/>
	<path d="M280.6,59V32.3c0-3.3-0.8-5.6-3.6-5.6c-2.2,0-3.4,1.3-5.2,4.4V59h-6.6V32.4c0-3.7-0.9-5.7-3.6-5.7c-2,0-3.3,1.4-5.2,4.5V59
		h-6.6V21.5h6.6v4.1h0.2c2-3.4,4-4.7,6.9-4.7c3.4,0,5.6,1.6,7.7,5.6c3-4.4,4.7-5.6,7.7-5.6c4.2,0,8.3,3.1,8.3,11V59H280.6z"/>
	<path d="M294.8,21.5h6.6v2.7h0.2c1.4-2.1,3.4-3.3,5.7-3.3c6.2,0,10.7,8.5,10.7,19.9c0,11.3-4.4,19.2-10.7,19.2c-2.2,0-4-1-5.7-3.3
		h-0.2v22.5h-6.6V21.5z M301.4,50.4c1.6,2.4,2.9,3.4,4.6,3.4c2.3,0,5.2-2.5,5.2-13c0-9.1-1.9-13.5-5.8-13.5c-1.9,0-3.2,1.4-4,3.3
		V50.4z"/>
	<path d="M347.9,57.1c-2.3,2-3.7,2.8-5.2,2.8c-2.4,0-4.1-1.6-4.8-4.7c-2.5,3.3-4.7,4.9-7.2,4.9c-4,0-7.4-4.4-7.4-9.5
		c0-6.2,4-9.2,14.3-15.3v-3.6c0-3.3-1.3-4.9-3.9-4.9c-2.8,0-5.6,1.8-9.5,6.2v-7.6c3.9-3.6,6.4-4.8,10-4.8c4.7,0,10,3.1,10,10.1v21.2
		c0,1.7,0.3,2.2,1,2.2c0.4,0,1.4-0.7,2.6-1.9V57.1z M337.6,39.8c-5.4,3.3-7.8,6.3-7.8,9.7c0,2.5,1.4,4.2,3.2,4.2
		c1.7,0,3.4-1.5,4.6-4.3V39.8z"/>
	<path d="M204.6,64h7.3v56.5h-7.3V64z"/>
	<path d="M220.8,83h6.6v4.1h0.2c2-3.3,4-4.7,6.9-4.7c4.6,0,8.2,3.6,8.2,11.1v27h-6.6V93.7c0-3.2-0.8-5.4-3.6-5.4
		c-2,0-3.6,1.5-5.2,4.5v27.8h-6.6V83z"/>
	<path d="M265.1,120.1c-2.6,1.1-4.1,1.4-5.8,1.4c-4.3,0-6.9-2.3-6.9-8.4V88.8H248v-0.6c3.9-4.7,7-9.5,10.3-14.8h0.6V83h6.2v5.8h-6.2
		v21.4c0,3.6,0.5,5.1,2.6,5.1c1.1,0,2-0.3,3.6-1V120.1z"/>
	<path d="M288.6,118.2c-2.5,2.3-4.9,3.3-7.7,3.3c-7.4,0-12-6.7-12-19.8c0-12.4,3.8-19.7,10.4-19.7c4.1,0,6.3,2.6,7.9,5.6
		c1,1.9,2.3,6.6,2.2,15.7h-13.9c0,7.9,2.3,12.2,6.7,12.2c2.5,0,4.6-1.3,6.4-3.7V118.2z M282.7,98.3c0-7.2-1.2-10.6-3.8-10.6
		c-2.5,0-3.6,3.5-3.6,10.6H282.7z"/>
	<path d="M296.8,83h6.6v10.2h0.2c2.6-9,3.8-10.8,6.9-10.8c1.3,0,2.3,0.3,3.4,1.1l-0.5,6.8c-1-0.7-1.9-0.9-2.9-0.9
		c-5.1,0-7.1,11.9-7.1,16.3v14.9h-6.6V83z"/>
	<path d="M319,83h6.6v4.1h0.2c2-3.3,4-4.7,6.9-4.7c4.6,0,8.2,3.6,8.2,11.1v27h-6.6V93.7c0-3.2-0.8-5.4-3.6-5.4c-2,0-3.6,1.5-5.2,4.5
		v27.8H319V83z"/>
	<path d="M372.1,118.6c-2.3,2-3.7,2.8-5.2,2.8c-2.4,0-4.1-1.6-4.8-4.7c-2.5,3.3-4.7,4.9-7.2,4.9c-4,0-7.4-4.4-7.4-9.5
		c0-6.2,4-9.2,14.3-15.3v-3.6c0-3.3-1.3-4.9-3.9-4.9c-2.8,0-5.6,1.8-9.5,6.2v-7.6c3.9-3.6,6.4-4.8,10-4.8c4.7,0,10,3.1,10,10.1v21.2
		c0,1.7,0.3,2.2,1,2.2c0.4,0,1.4-0.7,2.6-1.9V118.6z M361.9,101.3c-5.4,3.3-7.8,6.3-7.8,9.7c0,2.5,1.4,4.2,3.2,4.2
		c1.7,0,3.4-1.5,4.6-4.3V101.3z"/>
	<path d="M391.5,120.1c-2.6,1.1-4.1,1.4-5.8,1.4c-4.3,0-6.9-2.3-6.9-8.4V88.8h-4.3v-0.6c3.9-4.7,7-9.5,10.3-14.8h0.6V83h6.2v5.8
		h-6.2v21.4c0,3.6,0.5,5.1,2.6,5.1c1.1,0,2-0.3,3.6-1V120.1z"/>
	<path d="M400,63.2c2.1,0,3.8,1.7,3.8,3.8c0,2.1-1.7,3.8-3.8,3.8c-2.1,0-3.8-1.7-3.8-3.8C396.2,64.9,397.8,63.2,400,63.2z M396.7,83
		h6.6v37.5h-6.6V83z"/>
	<path d="M422,82c7.3,0,11.8,7.5,11.8,19.8c0,12.2-4.5,19.7-11.8,19.7c-7.3,0-11.8-7.5-11.8-19.7C410.2,89.5,414.7,82,422,82z
		 M422.1,115.3c3.2,0,4.9-4.8,4.9-13.5c0-8.9-1.7-13.5-5.1-13.5c-3.2,0-4.9,4.8-4.9,13.5C417,110.6,418.7,115.3,422.1,115.3z"/>
	<path d="M440.7,83h6.6v4.1h0.2c2-3.3,4-4.7,6.9-4.7c4.6,0,8.2,3.6,8.2,11.1v27H456V93.7c0-3.2-0.8-5.4-3.6-5.4
		c-2,0-3.6,1.5-5.2,4.5v27.8h-6.6V83z"/>
	<path d="M493.7,118.6c-2.3,2-3.7,2.8-5.2,2.8c-2.4,0-4.1-1.6-4.8-4.7c-2.5,3.3-4.7,4.9-7.2,4.9c-4,0-7.4-4.4-7.4-9.5
		c0-6.2,4-9.2,14.3-15.3v-3.6c0-3.3-1.3-4.9-3.9-4.9c-2.8,0-5.6,1.8-9.5,6.2v-7.6c3.9-3.6,6.4-4.8,10-4.8c4.7,0,10,3.1,10,10.1v21.2
		c0,1.7,0.3,2.2,1,2.2c0.4,0,1.4-0.7,2.6-1.9V118.6z M483.5,101.3c-5.4,3.3-7.8,6.3-7.8,9.7c0,2.5,1.4,4.2,3.2,4.2
		c1.7,0,3.4-1.5,4.6-4.3V101.3z"/>
	<path d="M498.4,64h6.6v56.5h-6.6V64z"/>
	<path d="M204.7,126.9h7.5l10.6,56.9h-7l-2-12.5h-10.5l-2.2,12.5h-7L204.7,126.9z M212.5,164.5l-4-23.7h-0.2l-4,23.7H212.5z"/>
	<path d="M231,126.5c2.1,0,3.8,1.7,3.8,3.8c0,2.1-1.7,3.8-3.8,3.8c-2.1,0-3.8-1.7-3.8-3.8C227.2,128.2,228.9,126.5,231,126.5z
		 M227.7,146.3h6.6v37.5h-6.6V146.3z"/>
	<path d="M242.7,146.3h6.6v10.2h0.2c2.6-9,3.8-10.7,6.9-10.7c1.3,0,2.3,0.3,3.4,1.1l-0.5,6.8c-1-0.7-1.9-0.9-2.9-0.9
		c-5.1,0-7.1,11.9-7.1,16.3v14.9h-6.6V146.3z"/>
	<path d="M263.7,146.3h6.6v2.7h0.2c1.4-2.1,3.4-3.3,5.7-3.3c6.2,0,10.7,8.5,10.7,19.9c0,11.3-4.4,19.2-10.7,19.2c-2.2,0-4-1-5.7-3.3
		h-0.2V204h-6.6V146.3z M270.3,175.1c1.6,2.4,2.9,3.4,4.6,3.4c2.3,0,5.2-2.5,5.2-13c0-9.1-1.9-13.5-5.8-13.5c-1.9,0-3.2,1.4-4,3.3
		V175.1z"/>
	<path d="M304.1,145.3c7.3,0,11.8,7.5,11.8,19.8c0,12.2-4.5,19.7-11.8,19.7c-7.3,0-11.8-7.5-11.8-19.7
		C292.3,152.8,296.8,145.3,304.1,145.3z M304.2,178.5c3.2,0,4.9-4.8,4.9-13.5c0-8.9-1.7-13.5-5.1-13.5c-3.2,0-4.9,4.8-4.9,13.5
		C299.1,173.9,300.8,178.5,304.2,178.5z"/>
	<path d="M323,146.3h6.6v10.2h0.2c2.6-9,3.8-10.7,6.9-10.7c1.3,0,2.3,0.3,3.4,1.1l-0.5,6.8c-1-0.7-1.9-0.9-2.9-0.9
		c-5.1,0-7.1,11.9-7.1,16.3v14.9H323V146.3z"/>
	<path d="M360.4,183.3c-2.6,1.1-4.1,1.4-5.8,1.4c-4.3,0-6.9-2.3-6.9-8.4V152h-4.3v-0.6c3.9-4.7,7-9.5,10.3-14.8h0.6v9.7h6.2v5.8
		h-6.2v21.4c0,3.6,0.5,5.1,2.6,5.1c1.1,0,2-0.3,3.6-1V183.3z"/>
</g>
</svg>
